<?xml version="1.0" standalone="no"?>
<!DOCTYPE svg PUBLIC "-//W3C//DTD SVG 1.1//EN" "http://www.w3.org/Graphics/SVG/1.1/DTD/svg11.dtd">
<svg xmlns="http://www.w3.org/2000/svg" version="1.1" width="500" height="333.333">
<line x1="388.889" y1="0" x2="319.444" y2="118.056" style="stroke:black;stroke-width:1" />
<line x1="319.444" y1="118.056" x2="444.444" y2="111.111" style="stroke:black;stroke-width:1" />
<line x1="444.444" y1="111.111" x2="388.889" y2="0" style="stroke:black;stroke-width:1" />
<line x1="388.889" y1="0" x2="277.778" y2="0" style="stroke:black;stroke-width:1" />
<line x1="277.778" y1="0" x2="319.444" y2="118.056" style="stroke:black;stroke-width:1" />
<line x1="333.333" y1="333.333" x2="388.889" y2="222.222" style="stroke:black;stroke-width:1" />
<line x1="388.889" y1="222.222" x2="277.778" y2="236.111" style="stroke:black;stroke-width:1" />
<line x1="277.778" y1="236.111" x2="333.333" y2="333.333" style="stroke:black;stroke-width:1" />
<line x1="388.889" y1="222.222" x2="444.444" y2="111.111" style="stroke:black;stroke-width:1" />
<line x1="319.444" y1="118.056" x2="388.889" y2="222.222" style="stroke:black;stroke-width:1" />
<line x1="222.222" y1="333.333" x2="111.111" y2="333.333" style="stroke:black;stroke-width:1" />
<line x1="111.111" y1="333.333" x2="0" y2="333.333" style="stroke:black;stroke-width:1" />
<line x1="333.333" y1="333.333" x2="222.222" y2="333.333" style="stroke:black;stroke-width:1" />
<line x1="444.444" y1="111.111" x2="500" y2="0" style="stroke:black;stroke-width:1" />
<line x1="500" y1="0" x2="388.889" y2="0" style="stroke:black;stroke-width:1" />
<line x1="221.448" y1="149.849" x2="166.667" y2="0" style="stroke:black;stroke-width:1" />
<line x1="166.667" y1="0" x2="111.111" y2="111.111" style="stroke:black;stroke-width:1" />
<line x1="111.111" y1="111.111" x2="221.448" y2="149.849" style="stroke:black;stroke-width:1" />
<line x1="319.444" y1="118.056" x2="277.778" y2="236.111" style="stroke:black;stroke-width:1" />
<line x1="111.111" y1="333.333" x2="55.5556" y2="222.222" style="stroke:black;stroke-width:1" />
<line x1="55.5556" y1="222.222" x2="0" y2="333.333" style="stroke:black;stroke-width:1" />
<line x1="166.667" y1="0" x2="277.778" y2="0" style="stroke:black;stroke-width:1" />
<line x1="319.444" y1="118.056" x2="221.448" y2="149.849" style="stroke:black;stroke-width:1" />
<line x1="221.448" y1="149.849" x2="277.778" y2="236.111" style="stroke:black;stroke-width:1" />
<line x1="277.778" y1="236.111" x2="166.667" y2="237.103" style="stroke:black;stroke-width:1" />
<line x1="166.667" y1="237.103" x2="222.222" y2="333.333" style="stroke:black;stroke-width:1" />
<line x1="222.222" y1="333.333" x2="277.778" y2="236.111" style="stroke:black;stroke-width:1" />
<line x1="55.5556" y1="222.222" x2="111.111" y2="111.111" style="stroke:black;stroke-width:1" />
<line x1="221.448" y1="149.849" x2="277.778" y2="0" style="stroke:black;stroke-width:1" />
<line x1="55.5556" y1="222.222" x2="166.667" y2="237.103" style="stroke:black;stroke-width:1" />
<line x1="166.667" y1="237.103" x2="111.111" y2="111.111" style="stroke:black;stroke-width:1" />
<line x1="221.448" y1="149.849" x2="166.667" y2="237.103" style="stroke:black;stroke-width:1" />
<line x1="111.111" y1="333.333" x2="166.667" y2="237.103" style="stroke:black;stroke-width:1" />
<circle cx="0" cy="333.333" r="3" fill="red" />
<circle cx="111.111" cy="333.333" r="3" fill="red" />
<circle cx="222.222" cy="333.333" r="3" fill="red" />
<circle cx="333.333" cy="333.333" r="3" fill="red" />
<circle cx="388.889" cy="222.222" r="3" fill="red" />
<circle cx="444.444" cy="111.111" r="3" fill="red" />
<circle cx="500" cy="0" r="3" fill="red" />
<circle cx="388.889" cy="0" r="3" fill="red" />
<circle cx="277.778" cy="0" r="3" fill="red" />
<circle cx="166.667" cy="0" r="3" fill="red" />
<circle cx="111.111" cy="111.111" r="3" fill="red" />
<circle cx="55.5556" cy="222.222" r="3" fill="red" />
<circle cx="319.444" cy="118.056" r="3" fill="red" />
<circle cx="277.778" cy="236.111" r="3" fill="red" />
<circle cx="166.667" cy="237.103" r="3" fill="red" />
<circle cx="221.448" cy="149.849" r="3" fill="red" />
</svg>
